<mxfile host="app.diagrams.net" agent="Mozilla/5.0 (Windows NT 10.0; Win64; x64) AppleWebKit/537.36 (KHTML, like Gecko) Chrome/133.0.0.0 Safari/537.36" version="26.1.0">
  <diagram id="C5RBs43oDa-KdzZeNtuy" name="Page-1">
    <mxGraphModel dx="867" dy="461" grid="1" gridSize="10" guides="1" tooltips="1" connect="1" arrows="1" fold="1" page="1" pageScale="1" pageWidth="827" pageHeight="1169" math="0" shadow="0">
      <root>
        <mxCell id="WIyWlLk6GJQsqaUBKTNV-0" />
        <mxCell id="WIyWlLk6GJQsqaUBKTNV-1" parent="WIyWlLk6GJQsqaUBKTNV-0" />
        <mxCell id="UDJjKdA9QRHvQjjZj9Im-1" style="edgeStyle=orthogonalEdgeStyle;rounded=0;orthogonalLoop=1;jettySize=auto;html=1;" edge="1" parent="WIyWlLk6GJQsqaUBKTNV-1" source="UDJjKdA9QRHvQjjZj9Im-0">
          <mxGeometry relative="1" as="geometry">
            <mxPoint x="360" y="110" as="targetPoint" />
          </mxGeometry>
        </mxCell>
        <mxCell id="UDJjKdA9QRHvQjjZj9Im-8" value="" style="edgeStyle=orthogonalEdgeStyle;rounded=0;orthogonalLoop=1;jettySize=auto;html=1;" edge="1" parent="WIyWlLk6GJQsqaUBKTNV-1" source="UDJjKdA9QRHvQjjZj9Im-0" target="UDJjKdA9QRHvQjjZj9Im-7">
          <mxGeometry relative="1" as="geometry" />
        </mxCell>
        <mxCell id="UDJjKdA9QRHvQjjZj9Im-0" value="Start" style="rounded=1;whiteSpace=wrap;html=1;" vertex="1" parent="WIyWlLk6GJQsqaUBKTNV-1">
          <mxGeometry x="300" y="30" width="120" height="60" as="geometry" />
        </mxCell>
        <mxCell id="UDJjKdA9QRHvQjjZj9Im-6" style="edgeStyle=orthogonalEdgeStyle;rounded=0;orthogonalLoop=1;jettySize=auto;html=1;" edge="1" parent="WIyWlLk6GJQsqaUBKTNV-1" source="UDJjKdA9QRHvQjjZj9Im-2">
          <mxGeometry relative="1" as="geometry">
            <mxPoint x="360" y="200" as="targetPoint" />
          </mxGeometry>
        </mxCell>
        <mxCell id="UDJjKdA9QRHvQjjZj9Im-2" value="verilmis ededler: c a b d" style="shape=parallelogram;perimeter=parallelogramPerimeter;whiteSpace=wrap;html=1;fixedSize=1;" vertex="1" parent="WIyWlLk6GJQsqaUBKTNV-1">
          <mxGeometry x="260" y="120" width="190" height="60" as="geometry" />
        </mxCell>
        <mxCell id="UDJjKdA9QRHvQjjZj9Im-10" style="edgeStyle=orthogonalEdgeStyle;rounded=0;orthogonalLoop=1;jettySize=auto;html=1;" edge="1" parent="WIyWlLk6GJQsqaUBKTNV-1" source="UDJjKdA9QRHvQjjZj9Im-7">
          <mxGeometry relative="1" as="geometry">
            <mxPoint x="460" y="250" as="targetPoint" />
          </mxGeometry>
        </mxCell>
        <mxCell id="UDJjKdA9QRHvQjjZj9Im-11" style="edgeStyle=orthogonalEdgeStyle;rounded=0;orthogonalLoop=1;jettySize=auto;html=1;" edge="1" parent="WIyWlLk6GJQsqaUBKTNV-1" source="UDJjKdA9QRHvQjjZj9Im-7">
          <mxGeometry relative="1" as="geometry">
            <mxPoint x="355" y="330" as="targetPoint" />
          </mxGeometry>
        </mxCell>
        <mxCell id="UDJjKdA9QRHvQjjZj9Im-13" value="True" style="edgeLabel;html=1;align=center;verticalAlign=middle;resizable=0;points=[];" vertex="1" connectable="0" parent="UDJjKdA9QRHvQjjZj9Im-11">
          <mxGeometry x="-0.3445" y="-2" relative="1" as="geometry">
            <mxPoint y="3" as="offset" />
          </mxGeometry>
        </mxCell>
        <mxCell id="UDJjKdA9QRHvQjjZj9Im-7" value="a&amp;gt;b" style="rhombus;whiteSpace=wrap;html=1;" vertex="1" parent="WIyWlLk6GJQsqaUBKTNV-1">
          <mxGeometry x="275" y="200" width="160" height="100" as="geometry" />
        </mxCell>
        <mxCell id="UDJjKdA9QRHvQjjZj9Im-22" style="edgeStyle=orthogonalEdgeStyle;rounded=0;orthogonalLoop=1;jettySize=auto;html=1;entryX=0.5;entryY=1;entryDx=0;entryDy=0;" edge="1" parent="WIyWlLk6GJQsqaUBKTNV-1" source="UDJjKdA9QRHvQjjZj9Im-12" target="UDJjKdA9QRHvQjjZj9Im-21">
          <mxGeometry relative="1" as="geometry">
            <Array as="points">
              <mxPoint x="355" y="450" />
              <mxPoint x="680" y="450" />
            </Array>
          </mxGeometry>
        </mxCell>
        <mxCell id="UDJjKdA9QRHvQjjZj9Im-12" value="d=a" style="shape=document;whiteSpace=wrap;html=1;boundedLbl=1;" vertex="1" parent="WIyWlLk6GJQsqaUBKTNV-1">
          <mxGeometry x="295" y="330" width="120" height="80" as="geometry" />
        </mxCell>
        <mxCell id="UDJjKdA9QRHvQjjZj9Im-14" value="False" style="text;html=1;align=center;verticalAlign=middle;resizable=0;points=[];autosize=1;strokeColor=none;fillColor=none;" vertex="1" parent="WIyWlLk6GJQsqaUBKTNV-1">
          <mxGeometry x="415" y="228" width="50" height="30" as="geometry" />
        </mxCell>
        <mxCell id="UDJjKdA9QRHvQjjZj9Im-17" style="edgeStyle=orthogonalEdgeStyle;rounded=0;orthogonalLoop=1;jettySize=auto;html=1;" edge="1" parent="WIyWlLk6GJQsqaUBKTNV-1" source="UDJjKdA9QRHvQjjZj9Im-16">
          <mxGeometry relative="1" as="geometry">
            <mxPoint x="530" y="330" as="targetPoint" />
          </mxGeometry>
        </mxCell>
        <mxCell id="UDJjKdA9QRHvQjjZj9Im-19" value="True" style="edgeLabel;html=1;align=center;verticalAlign=middle;resizable=0;points=[];" vertex="1" connectable="0" parent="UDJjKdA9QRHvQjjZj9Im-17">
          <mxGeometry x="-0.3445" y="-2" relative="1" as="geometry">
            <mxPoint y="3" as="offset" />
          </mxGeometry>
        </mxCell>
        <mxCell id="UDJjKdA9QRHvQjjZj9Im-20" style="edgeStyle=orthogonalEdgeStyle;rounded=0;orthogonalLoop=1;jettySize=auto;html=1;" edge="1" parent="WIyWlLk6GJQsqaUBKTNV-1" source="UDJjKdA9QRHvQjjZj9Im-16">
          <mxGeometry relative="1" as="geometry">
            <mxPoint x="620" y="251.5" as="targetPoint" />
          </mxGeometry>
        </mxCell>
        <mxCell id="UDJjKdA9QRHvQjjZj9Im-16" value="a&amp;lt;b" style="rhombus;whiteSpace=wrap;html=1;" vertex="1" parent="WIyWlLk6GJQsqaUBKTNV-1">
          <mxGeometry x="460" y="203" width="140" height="97" as="geometry" />
        </mxCell>
        <mxCell id="UDJjKdA9QRHvQjjZj9Im-18" value="d=b" style="shape=document;whiteSpace=wrap;html=1;boundedLbl=1;" vertex="1" parent="WIyWlLk6GJQsqaUBKTNV-1">
          <mxGeometry x="480" y="330" width="120" height="80" as="geometry" />
        </mxCell>
        <mxCell id="UDJjKdA9QRHvQjjZj9Im-21" value="End" style="rounded=1;whiteSpace=wrap;html=1;" vertex="1" parent="WIyWlLk6GJQsqaUBKTNV-1">
          <mxGeometry x="620" y="222" width="120" height="60" as="geometry" />
        </mxCell>
        <mxCell id="UDJjKdA9QRHvQjjZj9Im-24" style="edgeStyle=orthogonalEdgeStyle;rounded=0;orthogonalLoop=1;jettySize=auto;html=1;entryX=0.66;entryY=1.023;entryDx=0;entryDy=0;entryPerimeter=0;" edge="1" parent="WIyWlLk6GJQsqaUBKTNV-1" source="UDJjKdA9QRHvQjjZj9Im-18" target="UDJjKdA9QRHvQjjZj9Im-21">
          <mxGeometry relative="1" as="geometry">
            <Array as="points">
              <mxPoint x="540" y="480" />
              <mxPoint x="699" y="480" />
            </Array>
          </mxGeometry>
        </mxCell>
        <mxCell id="UDJjKdA9QRHvQjjZj9Im-27" style="edgeStyle=orthogonalEdgeStyle;rounded=0;orthogonalLoop=1;jettySize=auto;html=1;" edge="1" parent="WIyWlLk6GJQsqaUBKTNV-1" source="UDJjKdA9QRHvQjjZj9Im-26">
          <mxGeometry relative="1" as="geometry">
            <mxPoint x="885" y="110" as="targetPoint" />
          </mxGeometry>
        </mxCell>
        <mxCell id="UDJjKdA9QRHvQjjZj9Im-26" value="Start" style="rounded=1;whiteSpace=wrap;html=1;" vertex="1" parent="WIyWlLk6GJQsqaUBKTNV-1">
          <mxGeometry x="820" y="20" width="130" height="60" as="geometry" />
        </mxCell>
        <mxCell id="UDJjKdA9QRHvQjjZj9Im-28" value="verilmis ededler: a b c d e" style="shape=parallelogram;perimeter=parallelogramPerimeter;whiteSpace=wrap;html=1;fixedSize=1;" vertex="1" parent="WIyWlLk6GJQsqaUBKTNV-1">
          <mxGeometry x="790" y="110" width="180" height="60" as="geometry" />
        </mxCell>
        <mxCell id="UDJjKdA9QRHvQjjZj9Im-30" value="False" style="text;html=1;align=center;verticalAlign=middle;resizable=0;points=[];autosize=1;strokeColor=none;fillColor=none;" vertex="1" parent="WIyWlLk6GJQsqaUBKTNV-1">
          <mxGeometry x="580" y="228" width="50" height="30" as="geometry" />
        </mxCell>
      </root>
    </mxGraphModel>
  </diagram>
</mxfile>
